HIERARCHY
ROOT Hips
{
	OFFSET 0.00000 0.00000 0.00000
	CHANNELS 6 Xposition Yposition Zposition Zrotation Yrotation Xrotation 
	JOINT LHipJoint
	{
		OFFSET 0 0 0
		CHANNELS 3 Zrotation Yrotation Xrotation
		JOINT LeftUpLeg
		{
			OFFSET 1.40001 -1.72600 0.84541
			CHANNELS 3 Zrotation Yrotation Xrotation
			JOINT LeftLeg
			{
				OFFSET 2.34760 -6.44999 0.00000
				CHANNELS 3 Zrotation Yrotation Xrotation
				JOINT LeftFoot
				{
					OFFSET 2.50650 -6.88655 0.00000
					CHANNELS 3 Zrotation Yrotation Xrotation
					JOINT LeftToeBase
					{
						OFFSET 0.12464 -0.34243 1.95563
						CHANNELS 3 Zrotation Yrotation Xrotation
						End Site
						{
							OFFSET 0.00000 -0.00000 1.00479
						}
					}
				}
			}
		}
	}
	JOINT RHipJoint
	{
		OFFSET 0 0 0
		CHANNELS 3 Zrotation Yrotation Xrotation
		JOINT RightUpLeg
		{
			OFFSET -1.40958 -1.72600 0.84541
			CHANNELS 3 Zrotation Yrotation Xrotation
			JOINT RightLeg
			{
				OFFSET -2.37905 -6.53640 0.00000
				CHANNELS 3 Zrotation Yrotation Xrotation
				JOINT RightFoot
				{
					OFFSET -2.50470 -6.88163 0.00000
					CHANNELS 3 Zrotation Yrotation Xrotation
					JOINT RightToeBase
					{
						OFFSET -0.12236 -0.33619 1.81785
						CHANNELS 3 Zrotation Yrotation Xrotation
						End Site
						{
							OFFSET -0.00000 -0.00000 0.93746
						}
					}
				}
			}
		}
	}
	JOINT LowerBack
	{
		OFFSET 0 0 0
		CHANNELS 3 Zrotation Yrotation Xrotation
		JOINT Spine
		{
			OFFSET -0.02146 1.96915 0.26424
			CHANNELS 3 Zrotation Yrotation Xrotation
			JOINT Spine1
			{
				OFFSET 0.01522 1.99484 0.02086
				CHANNELS 3 Zrotation Yrotation Xrotation
				JOINT Neck
				{
					OFFSET 0 0 0
					CHANNELS 3 Zrotation Yrotation Xrotation
					JOINT Neck1
					{
						OFFSET -0.02954 1.71757 0.03505
						CHANNELS 3 Zrotation Yrotation Xrotation
						JOINT Head
						{
							OFFSET 0.04170 1.65781 -0.11024
							CHANNELS 3 Zrotation Yrotation Xrotation
							End Site
							{
								OFFSET 0.01600 1.81465 -0.05144
							}
						}
					}
				}
				JOINT LeftShoulder
				{
					OFFSET 0 0 0
					CHANNELS 3 Zrotation Yrotation Xrotation
					JOINT LeftArm
					{
						OFFSET 2.77679 1.60868 -0.78649
						CHANNELS 3 Zrotation Yrotation Xrotation
						JOINT LeftForeArm
						{
							OFFSET 4.62672 -0.00000 -0.00000
							CHANNELS 3 Zrotation Yrotation Xrotation
							JOINT LeftHand
							{
								OFFSET 3.11018 -0.00000 -0.00000
								CHANNELS 3 Zrotation Yrotation Xrotation
								JOINT LeftFingerBase
								{
									OFFSET 0 0 0
									CHANNELS 3 Zrotation Yrotation Xrotation
									JOINT LeftHandIndex1
									{
										OFFSET 0.74383 -0.00000 -0.00000
										CHANNELS 3 Zrotation Yrotation Xrotation
										End Site
										{
											OFFSET 0.59970 -0.00000 -0.00000
										}
									}
								}
								JOINT LThumb
								{
									OFFSET 0 0 0
									CHANNELS 3 Zrotation Yrotation Xrotation
									End Site
									{
										OFFSET 0.60885 -0.00000 0.60885
									}
								}
							}
						}
					}
				}
				JOINT RightShoulder
				{
					OFFSET 0 0 0
					CHANNELS 3 Zrotation Yrotation Xrotation
					JOINT RightArm
					{
						OFFSET -2.73247 1.63658 -0.74740
						CHANNELS 3 Zrotation Yrotation Xrotation
						JOINT RightForeArm
						{
							OFFSET -4.55919 -0.00000 -0.00000
							CHANNELS 3 Zrotation Yrotation Xrotation
							JOINT RightHand
							{
								OFFSET -3.22748 -0.00000 -0.00000
								CHANNELS 3 Zrotation Yrotation Xrotation
								JOINT RightFingerBase
								{
									OFFSET 0 0 0
									CHANNELS 3 Zrotation Yrotation Xrotation
									JOINT RightHandIndex1
									{
										OFFSET -0.70088 -0.00000 -0.00000
										CHANNELS 3 Zrotation Yrotation Xrotation
										End Site
										{
											OFFSET -0.56507 -0.00000 -0.00000
										}
									}
								}
								JOINT RThumb
								{
									OFFSET 0 0 0
									CHANNELS 3 Zrotation Yrotation Xrotation
									End Site
									{
										OFFSET -0.57370 -0.00000 0.57370
									}
								}
							}
						}
					}
				}
			}
		}
	}
}
MOTION
Frames: 13
Frame Time: .0083333
1.9253 16.4158 22.5196 -2.3999 5.5956 14.8193 0.0000 0.0000 0.0000 -13.5476 -7.3900 -34.4548 14.7005 19.3129 74.3329 -0.3024 -11.6969 11.2845 0.2662 -3.3192 -9.1687 0.0000 0.0000 0.0000 22.7881 9.1563 -34.1212 -2.7917 -10.3500 30.1176 -0.3541 6.7463 -10.9018 -0.0523 1.4755 -4.0581 0.1688 -2.8670 -14.9996 4.0463 -4.0775 -2.6621 3.3811 -2.0323 5.8612 -6.8476 -9.9546 3.5669 12.2910 -14.3455 7.9356 4.4254 -7.0713 3.1598 -0.0000 0.0000 0.0000 -91.4682 -1.1125 19.9454 10.9362 -18.1904 -1.7559 -0.0000 -0.0000 15.1844 14.9862 -14.4252 -3.8152 -7.1250 0.0000 -0.0000 -8.5038 15.1804 6.0482 -0.0000 0.0000 0.0000 83.6126 -1.1255 11.2300 -13.6256 22.1970 -2.6850 0.0000 0.0000 1.4706 -15.9029 -33.0122 8.8233 7.1250 -0.0000 -0.0000 20.1539 -62.9108 -8.9540
1.9382 16.4254 22.6182 -2.7003 4.9451 14.8518 0.0000 0.0000 0.0000 -13.0033 -7.4029 -35.7576 15.0281 19.3967 75.3215 -0.3324 -11.3691 9.6402 0.4194 -4.1569 -11.5186 0.0000 0.0000 0.0000 23.1934 9.1880 -33.6532 -2.7481 -10.2756 29.8739 -0.3485 7.3750 -10.9715 -0.0346 1.2001 -3.2994 0.3870 -2.6433 -14.9878 4.1509 -3.8236 -2.6434 3.4210 -1.9048 5.8518 -6.8749 -10.0339 3.3121 12.2690 -14.4746 8.2306 4.3941 -7.1190 3.3030 -0.0000 0.0000 0.0000 -91.3182 -0.5152 19.9731 10.8833 -18.1092 -1.7395 -0.0000 -0.0000 14.7137 14.8200 -14.5326 -3.7984 -7.1250 0.0000 -0.0000 -8.6171 15.0850 6.1486 -0.0000 0.0000 0.0000 83.2935 -0.3822 12.6121 -14.1198 22.9057 -2.8746 0.0000 0.0000 0.5213 -16.2501 -33.0625 9.0353 7.1250 -0.0000 -0.0000 19.8156 -63.0475 -8.8610
1.9396 16.4312 22.7066 -2.8860 4.0332 14.7995 0.0000 0.0000 0.0000 -12.5216 -7.2681 -37.0160 15.2825 19.4579 76.0862 -0.3049 -10.8353 9.0677 0.3105 -3.5824 -9.9047 0.0000 0.0000 0.0000 23.3675 9.8376 -32.9247 -2.7150 -10.2188 29.6881 -0.3629 7.4569 -11.1798 -0.0458 1.3814 -3.7988 0.2640 -2.4549 -14.8663 4.2413 -3.5666 -2.4712 3.6413 -1.7849 5.9662 -6.7609 -9.9939 3.4472 12.2216 -14.3966 8.0331 4.3798 -7.0886 3.2027 0.0000 -0.0000 0.0000 -91.1881 -0.1077 19.5898 10.8512 -18.0597 -1.7295 -0.0000 -0.0000 14.5924 14.6512 -14.6911 -3.7933 -7.1250 0.0000 -0.0000 -8.7324 14.9379 6.2606 0.0000 -0.0000 0.0000 83.0629 0.6968 13.9785 -14.5421 23.5043 -3.0410 0.0000 -0.0000 -0.3693 -17.0135 -33.0939 9.4850 7.1250 -0.0000 -0.0000 18.9951 -63.2763 -8.5819
1.9470 16.4393 22.7934 -2.6977 3.1047 14.7986 0.0000 0.0000 0.0000 -12.4659 -7.3767 -38.2192 15.4445 19.4950 76.5719 -0.2682 -10.1853 8.5465 0.2223 -3.0348 -8.3756 0.0000 0.0000 0.0000 23.1272 10.2510 -32.3303 -2.6954 -10.1848 29.5774 -0.3656 7.7946 -11.2999 -0.0550 1.5135 -4.1629 -0.1440 -2.3674 -14.7568 4.2306 -3.3916 -2.3140 3.8990 -1.7107 6.0848 -6.8371 -9.8832 3.7070 12.3235 -14.2333 7.7309 4.4524 -7.0255 3.0661 -0.0000 0.0000 0.0000 -91.1266 0.3046 18.7487 10.8121 -17.9996 -1.7174 -0.0000 -0.0000 15.2435 14.3408 -14.5082 -3.6646 -7.1250 0.0000 -0.0000 -8.9422 15.1491 6.3739 -0.0000 0.0000 0.0000 82.8720 1.6570 15.3819 -15.1735 24.3873 -3.2973 0.0000 -0.0000 -1.2176 -17.3740 -33.1061 9.6978 7.1250 -0.0000 -0.0000 18.6027 -63.3829 -8.4447
1.9740 16.4520 22.8936 -2.3811 2.3536 14.9636 0.0000 0.0000 0.0000 -12.6411 -7.8232 -39.1771 15.4901 19.5052 76.7086 -0.2469 -9.6933 7.9638 0.1285 -2.3103 -6.3640 0.0000 0.0000 0.0000 22.8399 9.8098 -32.1270 -2.6790 -10.1564 29.4847 -0.3405 8.8291 -11.2892 -0.0607 1.5902 -4.3743 -0.2969 -2.2858 -14.9060 4.0975 -3.2545 -2.2950 3.8674 -1.6461 6.1772 -6.9239 -9.8451 3.5868 12.3124 -14.1977 7.9053 4.4533 -7.0019 3.1393 0.0000 0.0000 0.0000 -90.9376 0.8904 18.4847 10.7963 -17.9754 -1.7125 -0.0000 -0.0000 15.5946 13.9182 -14.0444 -3.4415 -7.1250 0.0000 -0.0000 -9.2302 15.6523 6.4834 0.0000 0.0000 0.0000 82.7288 2.3328 16.7205 -15.9444 25.4452 -3.6221 0.0000 -0.0000 -2.0788 -17.2423 -33.3528 9.6834 7.1250 -0.0000 -0.0000 18.9739 -63.5797 -8.7067
2.0032 16.4677 22.9914 -2.1231 1.5016 15.0710 0.0000 0.0000 0.0000 -12.7498 -8.2190 -39.9449 15.4371 19.4933 76.5499 -0.2735 -9.5659 6.2169 0.2780 -3.3910 -9.3692 0.0000 0.0000 0.0000 22.6356 9.2490 -31.9714 -2.6611 -10.1251 29.3827 -0.3054 10.1023 -11.3250 -0.0746 1.7624 -4.8496 -0.3757 -2.1913 -14.9531 3.9761 -3.1094 -2.3085 3.8110 -1.5754 6.1749 -6.9291 -9.8559 3.4952 12.0467 -14.2157 8.1804 4.3627 -7.0071 3.2201 -0.0000 0.0000 0.0000 -90.7618 1.7115 18.2902 10.8811 -18.1058 -1.7388 -0.0000 -0.0000 15.9250 14.1220 -14.1533 -3.5203 -7.1250 0.0000 -0.0000 -9.0911 15.5264 6.4081 -0.0000 0.0000 0.0000 82.5816 2.8830 18.1883 -16.7072 26.4702 -3.9559 0.0000 -0.0000 -3.0373 -17.4095 -33.5007 9.8190 7.1250 -0.0000 -0.0000 18.9218 -63.7625 -8.7628
2.0230 16.4876 23.0771 -2.0577 0.6100 15.1153 0.0000 0.0000 0.0000 -12.4919 -8.5895 -40.8074 15.3178 19.4661 76.1921 -0.2747 -9.4455 5.5349 0.2190 -3.0126 -8.3137 0.0000 0.0000 0.0000 22.5768 9.1251 -31.6460 -2.6283 -10.0675 29.1955 -0.2738 11.0051 -11.3355 -0.0853 1.8840 -5.1853 -0.4672 -2.1347 -14.7696 3.9367 -3.0189 -2.2183 3.8431 -1.5343 6.1658 -6.5728 -9.8818 2.8277 11.4900 -14.2163 8.6068 4.0958 -6.9769 3.3936 -0.0000 0.0000 0.0000 -90.5707 2.4466 18.0295 11.0387 -18.3476 -1.7881 -0.0000 -0.0000 16.3661 14.6193 -14.2255 -3.6676 -7.1250 0.0000 -0.0000 -8.7526 15.4137 6.1851 -0.0000 0.0000 0.0000 82.5190 3.6714 19.8132 -17.5448 27.5703 -4.3365 0.0000 -0.0000 -4.2771 -17.9200 -33.7460 10.1840 7.1250 -0.0000 -0.0000 18.5723 -64.1292 -8.7540
2.0282 16.5003 23.1711 -2.0603 -0.7767 15.2983 0.0000 0.0000 0.0000 -12.1331 -8.4753 -41.8089 15.1416 19.4244 75.6630 -0.3043 -9.8145 5.0269 0.1986 -2.8700 -7.9169 0.0000 0.0000 0.0000 22.4309 9.9710 -31.1758 -2.5977 -10.0134 29.0200 -0.2614 11.3842 -11.3651 -0.0899 1.9341 -5.3236 -0.6749 -1.8614 -14.9150 3.9063 -2.6105 -2.6430 4.0119 -1.3305 5.7701 -6.7962 -9.7357 4.8060 11.4392 -14.0394 8.1073 4.2497 -6.9781 2.9167 0.0000 0.0000 0.0000 -90.4256 4.3918 18.1103 11.1141 -18.4630 -1.8119 -0.0000 -0.0000 16.5551 15.2299 -14.0954 -3.7934 -7.1250 0.0000 -0.0000 -8.3362 15.4964 5.8692 0.0000 0.0000 0.0000 82.4469 3.1069 21.2174 -18.6266 28.9521 -4.8488 0.0000 -0.0000 -5.3806 -18.6000 -33.5536 10.5371 7.1250 -0.0000 -0.0000 17.6195 -64.1319 -8.2920
2.0809 16.5184 23.2795 -2.3996 -1.1670 15.7461 0.0000 0.0000 0.0000 -11.5049 -9.3665 -42.5878 14.8951 19.3634 74.9204 -0.3583 -10.5414 3.6955 0.5148 -4.5988 -12.7676 0.0000 0.0000 0.0000 22.9245 8.6398 -31.5909 -2.5798 -9.9815 28.9168 -0.1622 13.3181 -11.2555 -0.0772 1.7923 -4.9319 0.2350 -1.7673 -15.4755 3.9512 -2.6419 -2.7395 3.5247 -1.3282 5.9385 -7.1442 -9.6537 5.3470 11.5791 -13.9387 7.7432 4.3875 -6.9621 2.7441 -0.0000 0.0000 0.0000 -90.2913 5.2734 18.5430 11.0028 -18.2926 -1.7768 -0.0000 -0.0000 15.9717 15.5935 -14.1491 -3.9027 -7.1250 0.0000 -0.0000 -8.0886 15.4113 5.7062 -0.0000 0.0000 0.0000 82.2525 3.4500 22.5118 -19.6883 30.2650 -5.3734 0.0000 -0.0000 -6.4715 -19.0359 -32.7730 10.5791 7.1250 -0.0000 -0.0000 16.4324 -63.5067 -7.4781
2.1269 16.5188 23.3683 -2.3807 -1.9203 15.9472 0.0000 0.0000 0.0000 -11.2173 -10.0662 -43.1221 14.5824 19.2813 73.9756 -0.3917 -11.1427 2.2860 0.8828 -5.9896 -16.7543 0.0000 0.0000 0.0000 22.9139 7.8735 -31.7521 -2.5780 -9.9784 28.9068 -0.0544 14.8340 -11.0163 -0.0856 1.8874 -5.1945 0.5659 -1.7357 -15.5911 3.9301 -2.6623 -2.6123 3.3065 -1.3331 6.1229 -7.3152 -9.6035 5.0847 11.5580 -13.8526 7.6022 4.3983 -6.9190 2.7465 -0.0000 -0.0000 0.0000 -90.1843 5.6940 18.8835 10.8512 -18.0598 -1.7295 -0.0000 -0.0000 15.2132 16.1011 -14.3063 -4.0799 -7.1250 0.0000 -0.0000 -7.7443 15.2072 5.4929 -0.0000 -0.0000 0.0000 82.1071 4.1194 24.1148 -20.8554 31.6592 -5.9739 0.0000 -0.0000 -7.8799 -19.3408 -33.1348 10.8607 7.1250 -0.0000 -0.0000 16.3962 -63.9337 -7.6247
2.1421 16.5191 23.4531 -1.8030 -3.3389 15.9365 0.0000 0.0000 0.0000 -11.5058 -10.3174 -43.3943 14.1380 19.1554 72.6256 -0.3955 -11.3902 1.3068 1.0314 -6.4598 -18.1245 0.0000 0.0000 0.0000 22.0486 8.5377 -31.2820 -2.5725 -9.9685 28.8748 -0.0188 15.2424 -10.9087 -0.1095 2.1335 -5.8746 -0.1823 -1.6444 -15.3070 3.7550 -2.4028 -2.6013 3.6042 -1.2202 5.9863 -7.1524 -9.6075 4.8359 11.1571 -13.8270 7.7632 4.2379 -6.8980 2.7947 -0.0000 0.0000 0.0000 -90.0677 6.5392 19.0617 10.8265 -18.0219 -1.7219 -0.0000 -0.0000 14.9396 16.5172 -14.4786 -4.2402 -7.1250 0.0000 -0.0000 -7.4636 14.9937 5.3247 -0.0000 0.0000 0.0000 82.0843 4.3849 25.5809 -22.1966 33.1985 -6.6932 0.0000 -0.0000 -9.1030 -19.5912 -33.6389 11.1534 7.1250 -0.0000 -0.0000 16.5567 -64.4827 -7.9130
2.1715 16.5313 23.5499 -1.4846 -4.3772 15.9906 0.0000 0.0000 0.0000 -11.5536 -10.9117 -43.4808 13.6112 18.9918 71.0135 -0.3701 -11.3833 0.0619 1.3736 -7.4170 -20.9567 0.0000 0.0000 0.0000 21.5865 8.4317 -31.0895 -2.5913 -10.0021 28.9835 0.0504 16.2050 -10.8603 -0.0808 1.8333 -5.0452 -0.4282 -1.5952 -14.8316 3.6674 -2.2780 -2.8735 3.6843 -1.1575 5.4336 -7.1204 -9.5746 4.9726 10.7464 -13.7728 7.9326 4.1178 -6.8797 2.7887 -0.0000 0.0000 0.0000 -90.1222 7.8719 18.8309 10.8388 -18.0408 -1.7257 -0.0000 -0.0000 15.1661 16.9196 -14.6269 -4.3927 -7.1250 0.0000 -0.0000 -7.1927 14.8045 5.1575 -0.0000 0.0000 0.0000 81.9019 4.2362 27.0927 -23.6468 34.7885 -7.5041 0.0000 -0.0000 -10.0649 -19.1777 -34.2188 11.0666 7.1250 -0.0000 -0.0000 17.5767 -64.9187 -8.5923
2.2014 16.5642 23.6439 -1.0517 -5.4402 16.0885 0.0000 0.0000 0.0000 -11.5790 -11.7307 -43.9808 12.9769 18.7738 69.0537 -0.3678 -11.3794 -0.0247 1.1010 -6.6674 -18.7337 0.0000 0.0000 0.0000 20.9920 8.2466 -31.0601 -2.6302 -10.0708 29.2064 0.1245 17.2585 -10.8927 -0.0562 1.5295 -4.2069 -0.6006 -1.5692 -15.3416 3.4191 -2.2167 -2.5599 3.5210 -1.1358 6.0383 -7.3765 -9.4436 5.7208 11.2056 -13.5810 6.9209 4.3664 -6.8273 2.3962 -0.0000 0.0000 0.0000 -89.9521 8.3108 18.8364 10.8629 -18.0778 -1.7331 -0.0000 -0.0000 14.8064 16.7567 -14.5367 -4.3219 -7.1250 0.0000 -0.0000 -7.3018 14.9123 5.2201 -0.0000 0.0000 0.0000 81.9564 5.1001 28.4405 -24.9860 36.1896 -8.2816 0.0000 -0.0000 -10.9373 -18.6831 -34.1995 10.7617 7.1250 -0.0000 -0.0000 18.1296 -64.7634 -8.8056
